<svg width="34" height="34" viewBox="0 0 34 34" fill="none" xmlns="http://www.w3.org/2000/svg">
<g clip-path="url(#clip0_1_133)">
<path d="M17 0C7.62344 0 0 7.62344 0 17C0 26.3699 7.62344 34 17 34C26.3699 34 34 26.3699 34 17C34 7.62344 26.3766 0 17 0ZM21.2301 17.5977H18.4609C18.4609 22.0137 18.4609 27.4523 18.4609 27.4523H14.3637C14.3637 27.4523 14.3637 22.0668 14.3637 17.5977H12.418V14.1113H14.3637V11.8602C14.3637 10.2465 15.1273 7.72305 18.5008 7.72305L21.5355 7.73633V11.1164C21.5355 11.1164 19.6895 11.1164 19.3309 11.1164C18.9723 11.1164 18.4609 11.2957 18.4609 12.066V14.1113H21.582L21.2301 17.5977Z" fill="#236D75"/>
</g>
<defs>
<clipPath id="clip0_1_133">
<rect width="34" height="34" fill="white"/>
</clipPath>
</defs>
</svg>
