<svg width="161" height="28" viewBox="0 0 161 28" fill="none" xmlns="http://www.w3.org/2000/svg">
<g clip-path="url(#clip0_1_102)">
<path d="M27.9244 0.186279V28.0001L8.1803 19.8522L27.9244 0.186279Z" fill="#05A17B"/>
<path d="M27.9244 0.186279V28.0001L47.6723 19.8522L27.9244 0.186279Z" fill="#39B773"/>
<path d="M27.9244 0.186279L47.6723 19.8522L55.8526 0.186279H27.9244Z" fill="#8FC84E"/>
<path d="M27.9244 0.186279L8.18029 19.8522L0 0.186279H27.9244Z" fill="#256D76"/>
<path d="M101.872 5.34007C101.697 6.37532 101.517 7.40684 101.345 8.44208C100.971 10.6764 100.601 12.9108 100.231 15.1451C99.902 17.1411 99.573 19.1371 99.2403 21.1294C99.001 22.5631 98.7692 23.9968 98.5 25.4231C98.3654 26.138 98.0327 26.3987 97.2887 26.4881C97.098 26.5104 96.9073 26.5514 96.7166 26.544C95.5614 26.5067 95.1688 26.1641 94.9707 24.965C94.4286 21.6917 93.9051 18.411 93.3668 15.1377C92.8471 11.9649 92.3162 8.79213 91.789 5.62309C91.7741 5.54116 91.7217 5.47041 91.6096 5.39965C91.6096 5.57095 91.6096 5.74598 91.6096 5.91728C91.6096 12.1325 91.6096 18.3477 91.6096 24.5628C91.6096 24.79 91.6096 25.0172 91.5946 25.2406C91.5385 26.1827 91.1123 26.57 90.1515 26.5477C89.1682 26.5253 88.7569 26.112 88.7569 25.1326C88.7569 17.3161 88.7569 9.49967 88.7569 1.6832C88.7569 0.539966 89.2317 0.0707547 90.3758 0.0670308C90.8992 0.0670308 91.4264 0.0670308 91.9498 0.0670308C93.1462 0.0670308 93.5948 0.47666 93.7818 1.66458C94.2566 4.66977 94.7538 7.67123 95.2324 10.6764C95.6661 13.3911 96.0848 16.1096 96.5185 18.8243C96.612 19.4164 96.7279 20.0048 96.9335 20.5857C97.2887 18.3328 97.6401 16.0798 98.0028 13.8268C98.4065 11.3356 98.8253 8.84426 99.2291 6.35297C99.487 4.76659 99.7487 3.18021 99.988 1.59011C100.156 0.469212 100.59 0.0707547 101.704 0.0670308C102.284 0.0670308 102.859 0.059583 103.439 0.0670308C104.385 0.0819264 104.893 0.584653 104.916 1.5119C104.916 1.59755 104.916 1.68693 104.916 1.77258C104.916 9.51829 104.916 17.2677 104.916 25.0134C104.916 26.3168 103.768 26.9908 102.594 26.3652C102.127 26.1157 101.984 25.6949 101.988 25.1847C101.996 21.6843 101.988 18.1875 101.988 14.6871C101.988 11.7638 101.988 8.83681 101.988 5.91355C101.988 5.72363 101.988 5.53372 101.988 5.3438C101.951 5.3438 101.91 5.33635 101.872 5.33635V5.34007Z" fill="white"/>
<path d="M145.645 18.6084C145.645 18.4185 145.645 18.2286 145.645 18.0387C145.645 12.5571 145.645 7.07179 145.645 1.59021C145.645 0.733715 145.866 0.283123 146.479 0.149063C147.731 -0.126506 148.565 0.167682 148.565 1.57159C148.565 9.29868 148.569 17.0258 148.558 24.7566C148.558 25.4008 148.528 26.1828 147.769 26.3467C146.991 26.5143 146.15 26.4808 145.35 26.3914C144.83 26.3318 144.602 25.8067 144.486 25.3152C143.955 23.0473 143.432 20.7757 142.912 18.5079C141.992 14.5047 141.08 10.5015 140.16 6.50204C140.149 6.46107 140.097 6.42756 139.985 6.30467C139.985 6.57279 139.985 6.74781 139.985 6.92656C139.985 12.8103 139.985 18.6941 139.985 24.5741C139.985 24.8013 139.985 25.0284 139.97 25.2519C139.914 26.1903 139.48 26.5776 138.519 26.5515C137.555 26.5254 137.132 26.1121 137.132 25.1848C137.132 17.3349 137.132 9.48488 137.132 1.6349C137.132 0.562416 137.622 0.0783087 138.699 0.0745848C139.102 0.0745848 139.502 0.0745848 139.906 0.0745848C140.908 0.0745848 141.323 0.361325 141.57 1.3705C142.034 3.26224 142.456 5.16888 142.893 7.06807C143.78 10.9149 144.662 14.7616 145.548 18.6122C145.578 18.6122 145.611 18.6122 145.641 18.6122L145.645 18.6084Z" fill="white"/>
<path d="M111.144 23.6767C112.531 23.6767 113.877 23.6767 115.223 23.6767C115.709 23.6767 116.221 23.7065 116.423 24.2204C116.674 24.8497 116.734 25.5498 116.281 26.1009C116.091 26.3355 115.635 26.4584 115.298 26.4622C113.444 26.4957 111.589 26.4957 109.735 26.4696C108.553 26.4547 108.082 25.9371 108.082 24.7454C108.082 17.1077 108.082 9.46629 108.082 1.82857C108.082 0.666713 108.621 0.134196 109.653 0.152815C111.578 0.182606 113.5 0.152815 115.425 0.178882C116.154 0.18633 116.457 0.532653 116.468 1.25137C116.468 1.4599 116.476 1.66844 116.468 1.87698C116.446 2.5026 116.143 2.85264 115.511 2.87126C114.27 2.9085 113.029 2.9085 111.787 2.91967C111.582 2.91967 111.376 2.91967 111.141 2.91967C111.129 3.13938 111.114 3.29206 111.114 3.44474C111.114 6.00306 111.122 8.56138 111.103 11.1197C111.103 11.5628 111.238 11.6783 111.668 11.6708C112.804 11.6448 113.941 11.6597 115.081 11.6671C115.859 11.6746 116.229 12.0246 116.263 12.7992C116.278 13.1083 116.293 13.436 116.21 13.7264C116.083 14.1807 115.717 14.3669 115.249 14.3669C114.023 14.3669 112.801 14.3781 111.574 14.3669C111.253 14.3669 111.107 14.434 111.107 14.7989C111.118 17.67 111.114 20.5412 111.114 23.4123C111.114 23.4793 111.129 23.5463 111.148 23.6841L111.144 23.6767Z" fill="white"/>
<path d="M155.631 23.6766C157.003 23.6766 158.331 23.6766 159.658 23.6766C160.649 23.6766 160.959 23.9782 160.996 24.9688C161.041 26.1157 160.697 26.4769 159.538 26.4769C157.822 26.4807 156.11 26.4844 154.394 26.4732C154.102 26.4732 153.803 26.4285 153.515 26.3652C152.951 26.2386 152.622 25.8439 152.577 25.263C152.551 24.898 152.536 24.5331 152.536 24.1681C152.536 16.914 152.536 9.6561 152.536 2.40194C152.536 2.037 152.551 1.67206 152.577 1.30712C152.629 0.659158 153.07 0.186223 153.724 0.178775C155.807 0.156432 157.886 0.163879 159.968 0.175051C160.462 0.175051 160.813 0.420828 160.858 0.93845C160.892 1.31084 160.895 1.69068 160.865 2.06679C160.824 2.60303 160.488 2.86371 159.961 2.87115C158.738 2.88977 157.512 2.90095 156.289 2.91584C156.084 2.91584 155.874 2.91584 155.627 2.91584V11.6596C156.3 11.6596 156.958 11.6596 157.616 11.6596C158.177 11.6596 158.734 11.6596 159.295 11.6596C160.533 11.6633 161.213 12.8214 160.555 13.8939C160.402 14.1434 159.961 14.3296 159.647 14.3445C158.514 14.4003 157.373 14.3668 156.237 14.3706C156.046 14.3706 155.859 14.3706 155.627 14.3706V23.6803L155.631 23.6766Z" fill="white"/>
<path d="M74.6583 23.6767C75.9444 23.6767 77.152 23.6767 78.3558 23.6767C78.8419 23.6767 79.3466 23.7027 79.556 24.2166C79.8139 24.846 79.8738 25.5423 79.4176 26.0935C79.2232 26.3281 78.7746 26.4547 78.4381 26.4621C76.7071 26.4994 74.9723 26.5031 73.2413 26.4696C72.3029 26.451 71.6075 26.1344 71.6299 24.9353C71.6336 24.6933 71.6075 24.4475 71.6075 24.2055C71.6075 16.8247 71.6075 9.44393 71.6075 2.06316C71.6075 1.94027 71.615 1.81738 71.6075 1.69822C71.5177 -0.0185026 72.6132 -0.100428 73.9068 0.182588C74.2993 0.268238 74.5237 0.558702 74.5685 0.960883C74.6059 1.30721 74.6508 1.65353 74.6508 1.99985C74.6545 8.98216 74.6508 15.9608 74.6508 22.9431V23.6841L74.6583 23.6767Z" fill="white"/>
<path d="M122.727 23.6767C124.024 23.6767 125.228 23.6767 126.436 23.6767C126.922 23.6767 127.43 23.714 127.632 24.2241C127.883 24.8535 127.946 25.5536 127.482 26.101C127.284 26.3356 126.836 26.4548 126.499 26.4622C124.768 26.4957 123.033 26.5032 121.302 26.4659C120.379 26.4473 119.68 26.142 119.702 24.9242C119.706 24.6822 119.68 24.4364 119.68 24.1944C119.68 16.8136 119.68 9.43282 119.68 2.05205C119.68 1.75786 119.695 1.45995 119.717 1.16576C119.77 0.458223 120.14 0.104452 120.854 0.0709371C121.029 0.0634893 121.205 0.0709371 121.377 0.0709371C122.207 0.0821088 122.551 0.368849 122.674 1.17321C122.716 1.44506 122.727 1.72807 122.727 2.00364C122.727 8.98595 122.727 15.9645 122.727 22.9468V23.6767Z" fill="white"/>
<path d="M84.9771 13.4322C84.9771 16.9997 84.9771 20.5709 84.9771 24.1384C84.9771 24.4847 84.9696 24.8348 84.9509 25.1811C84.8948 26.2238 84.4911 26.585 83.4218 26.5515C82.4011 26.5217 82.0534 26.2052 81.9413 25.196C81.9226 25.0247 81.9263 24.8497 81.9263 24.6746C81.9263 17.104 81.9263 9.52955 81.9263 1.95886C81.9263 1.88811 81.9263 1.82108 81.9263 1.75032C81.9413 0.260763 82.7563 -0.301546 84.1994 0.160217C84.6593 0.305449 84.8874 0.603361 84.9285 1.0614C84.9584 1.3891 84.9771 1.72053 84.9771 2.05196C84.9771 5.84661 84.9771 9.64127 84.9771 13.4359V13.4322Z" fill="white"/>
<path d="M133.076 13.4843C133.076 17.0369 133.076 20.5858 133.076 24.1384C133.076 24.4847 133.068 24.8348 133.049 25.1811C132.993 26.2238 132.59 26.585 131.52 26.5515C130.5 26.5217 130.152 26.2052 130.043 25.196C130.025 25.0247 130.029 24.8497 130.029 24.6746C130.029 17.104 130.029 9.52955 130.029 1.95886C130.029 1.88811 130.029 1.82108 130.029 1.75032C130.043 0.260763 130.859 -0.301546 132.302 0.160217C132.762 0.305449 132.99 0.603361 133.031 1.0614C133.061 1.3891 133.079 1.72053 133.079 2.05196C133.079 5.86523 133.079 9.6785 133.079 13.4881L133.076 13.4843Z" fill="white"/>
</g>
<defs>
<clipPath id="clip0_1_102">
<rect width="161" height="28" fill="white"/>
</clipPath>
</defs>
</svg>
