<svg width="34" height="34" viewBox="0 0 34 34" fill="none" xmlns="http://www.w3.org/2000/svg">
<g clip-path="url(#clip0_1_141)">
<path d="M17 20.3999C18.8727 20.3999 20.4066 18.8726 20.4066 16.9999C20.4066 16.2562 20.1609 15.5722 19.7625 15.0144C19.1449 14.1577 18.1422 13.5933 17.0066 13.5933C15.8711 13.5933 14.8684 14.1577 14.2441 15.0144C13.8391 15.5722 13.6 16.2562 13.6 16.9999C13.5934 18.8792 15.1207 20.3999 17 20.3999Z" fill="#236D75"/>
<path d="M24.4309 12.8363V9.98086V9.5625H24.0059L21.1504 9.56914L21.1637 12.8496L24.4309 12.8363Z" fill="#236D75"/>
<path d="M17 0C7.62344 0 0 7.62344 0 17C0 26.3699 7.62344 34 17 34C26.3699 34 34 26.3699 34 17C34 7.62344 26.3766 0 17 0ZM26.6688 15.0145V22.9301C26.6688 24.9887 24.9953 26.6687 22.9301 26.6687H11.0699C9.01133 26.6687 7.33125 24.9953 7.33125 22.9301V15.0145V11.0699C7.33125 9.01133 9.00469 7.33125 11.0699 7.33125H22.9301C24.9887 7.33125 26.6688 9.00469 26.6688 11.0699V15.0145Z" fill="#236D75"/>
<path d="M22.2859 17C22.2859 19.9152 19.9152 22.2859 17 22.2859C14.0848 22.2859 11.7141 19.9152 11.7141 17C11.7141 16.296 11.8535 15.6253 12.1059 15.0144H9.21719V22.93C9.21719 23.9527 10.0473 24.7828 11.0699 24.7828H22.9301C23.9527 24.7828 24.7828 23.9527 24.7828 22.93V15.0144H21.8941C22.1465 15.6253 22.2859 16.296 22.2859 17Z" fill="#236D75"/>
</g>
<defs>
<clipPath id="clip0_1_141">
<rect width="34" height="34" fill="white"/>
</clipPath>
</defs>
</svg>
