<svg width="60" height="60" viewBox="0 0 60 60" fill="none" xmlns="http://www.w3.org/2000/svg">
<mask id="mask0_1_188" style="mask-type:alpha" maskUnits="userSpaceOnUse" x="0" y="0" width="60" height="60">
<rect width="60" height="60" fill="#D9D9D9"/>
</mask>
<g mask="url(#mask0_1_188)">
<path d="M14.4583 48.6726C12.8424 48.6726 11.4716 48.1365 10.3458 47.0643C9.22003 45.9921 8.65714 44.6866 8.65714 43.1477V38.9201C8.65714 38.3925 8.84451 37.9503 9.21926 37.5934C9.59397 37.2365 10.0583 37.0581 10.6123 37.0581H16.3687V5.48504C16.3687 5.08108 16.5501 4.84171 16.9128 4.76695C17.2755 4.69215 17.6182 4.8084 17.9408 5.1157L19.8302 6.91508L22.6317 4.2875C22.8266 4.09583 23.0615 4 23.3366 4C23.6117 4 23.8488 4.097 24.0479 4.29101L26.8238 6.91508L29.6253 4.2875C29.8201 4.09583 30.0551 4 30.3301 4C30.6052 4 30.8417 4.097 31.0396 4.29101L33.8429 6.91508L36.6444 4.2875C36.8393 4.09583 37.0743 4 37.3493 4C37.6244 4 37.8609 4.097 38.0588 4.29101L40.8621 6.91508L43.6637 4.2875C43.8585 4.09583 44.0935 4 44.3686 4C44.6436 4 44.8801 4.097 45.078 4.29101L47.8813 6.91508L49.7708 5.1157C50.0934 4.79824 50.4361 4.67995 50.7988 4.76082C51.1615 4.84173 51.3429 5.08673 51.3429 5.49581V43.1477C51.3429 44.6866 50.78 45.9921 49.6542 47.0643C48.5284 48.1365 47.1576 48.6726 45.5417 48.6726H14.4583ZM45.5497 45.6812C46.3147 45.6812 46.9479 45.4424 47.4495 44.9646C47.9511 44.4869 48.202 43.8813 48.202 43.1477V8.80749H19.5096V37.0581H40.9423C41.4963 37.0581 41.9606 37.2365 42.3353 37.5934C42.7101 37.9503 42.8974 38.3925 42.8974 38.9201V43.1458C42.8974 43.8807 43.1482 44.4869 43.6498 44.9646C44.1514 45.4424 44.7847 45.6812 45.5497 45.6812ZM24.3958 17.6718C23.976 17.6718 23.6197 17.526 23.3269 17.2345C23.0342 16.943 22.8879 16.5859 22.8879 16.1632C22.8879 15.7404 23.0384 15.3876 23.3394 15.1048C23.6404 14.8219 24.0134 14.6805 24.4583 14.6805H35.5C35.945 14.6805 36.318 14.8246 36.619 15.1128C36.92 15.401 37.0705 15.7581 37.0705 16.1842C37.0705 16.6102 36.92 16.9647 36.619 17.2475C36.318 17.5304 35.945 17.6718 35.5 17.6718H24.3958ZM24.3958 25.2327C23.976 25.2327 23.6197 25.0843 23.3269 24.7875C23.0342 24.4908 22.8879 24.1336 22.8879 23.7162C22.8879 23.2987 23.0384 22.9485 23.3394 22.6657C23.6404 22.3828 24.0134 22.2414 24.4583 22.2414H35.5C35.945 22.2414 36.318 22.3855 36.619 22.6737C36.92 22.9619 37.0705 23.3191 37.0705 23.7451C37.0705 24.1711 36.92 24.5256 36.619 24.8084C36.318 25.0913 35.945 25.2327 35.5 25.2327H24.3958ZM42.6603 17.9924C42.1443 17.9924 41.6974 17.8125 41.3197 17.4528C40.9421 17.0932 40.7533 16.6676 40.7533 16.1761C40.7533 15.6847 40.9421 15.2592 41.3197 14.8995C41.6974 14.5398 42.1443 14.36 42.6603 14.36C43.1763 14.36 43.6231 14.5398 44.0008 14.8995C44.3784 15.2592 44.5673 15.6847 44.5673 16.1761C44.5673 16.6676 44.3784 17.0932 44.0008 17.4528C43.6231 17.8125 43.1763 17.9924 42.6603 17.9924ZM42.6603 25.4006C42.1443 25.4006 41.6974 25.2208 41.3197 24.8611C40.9421 24.5014 40.7533 24.0759 40.7533 23.5845C40.7533 23.093 40.9421 22.6674 41.3197 22.3078C41.6974 21.9481 42.1443 21.7682 42.6603 21.7682C43.1763 21.7682 43.6231 21.9481 44.0008 22.3078C44.3784 22.6674 44.5673 23.093 44.5673 23.5845C44.5673 24.0759 44.3784 24.5014 44.0008 24.8611C43.6231 25.2208 43.1763 25.4006 42.6603 25.4006ZM14.4213 45.6812H39.7565V40.0494H11.7981V43.1477C11.7981 43.8813 12.051 44.4869 12.5568 44.9646C13.0625 45.4424 13.684 45.6812 14.4213 45.6812Z" fill="white"/>
</g>
</svg>
