<svg width="60" height="60" viewBox="0 0 60 60" fill="none" xmlns="http://www.w3.org/2000/svg">
<mask id="mask0_1_185" style="mask-type:alpha" maskUnits="userSpaceOnUse" x="0" y="0" width="60" height="60">
<rect width="60" height="60" fill="#D9D9D9"/>
</mask>
<g mask="url(#mask0_1_185)">
<path d="M46.0833 20.3898C45.9027 20.3898 45.7267 20.3461 45.5553 20.2586C45.3838 20.1711 45.2564 20.0291 45.1731 19.8328L43.5737 16.5774L40.1554 15.0542C39.9493 14.9748 39.8002 14.8535 39.7083 14.6902C39.6164 14.5269 39.5705 14.3592 39.5705 14.1873C39.5705 14.0153 39.6164 13.8503 39.7083 13.6921C39.8002 13.5338 39.9493 13.4151 40.1554 13.3357L43.5737 11.7972L45.1731 8.55707C45.2564 8.36069 45.3838 8.21875 45.5553 8.13125C45.7267 8.04375 45.9027 8 46.0833 8C46.2639 8 46.4372 8.04375 46.6033 8.13125C46.7694 8.21875 46.8942 8.36069 46.9775 8.55707L48.5929 11.7972L51.9951 13.3357C52.2013 13.4151 52.3503 13.5338 52.4422 13.6921C52.5341 13.8503 52.5801 14.0153 52.5801 14.1873C52.5801 14.3592 52.5341 14.5269 52.4422 14.6902C52.3503 14.8535 52.2013 14.9748 51.9951 15.0542L48.5929 16.5774L46.9775 19.8328C46.8942 20.0291 46.7694 20.1711 46.6033 20.2586C46.4372 20.3461 46.2639 20.3898 46.0833 20.3898ZM51.2019 37.7003C51.0213 37.7003 50.8435 37.6566 50.6683 37.5691C50.493 37.4816 50.3595 37.3468 50.2676 37.1646L49.3974 35.3561L47.4984 34.5273C47.3905 34.4744 47.2083 34.1829 46.9519 33.6528C46.9519 33.4809 46.9978 33.3114 47.0898 33.1446C47.1816 32.9777 47.3178 32.8505 47.4984 32.763L49.3974 31.9343L50.2676 30.1257C50.3232 30.023 50.6346 29.8495 51.2019 29.6053C51.3824 29.6053 51.5603 29.649 51.7356 29.7365C51.9108 29.824 52.0443 29.9538 52.1362 30.1257L52.9903 31.9343L54.9054 32.763C55.0026 32.8108 55.1848 33.1074 55.4519 33.6528C55.4519 33.8248 55.4059 33.9916 55.3141 34.1534C55.2222 34.3152 55.086 34.4398 54.9054 34.5273L52.9903 35.3561L52.1362 37.1646C52.0753 37.2674 51.7638 37.446 51.2019 37.7003ZM21.4488 52.346C20.9562 52.346 20.5289 52.188 20.1667 51.8721C19.8045 51.5562 19.5871 51.1637 19.5144 50.6946L19.0802 47.1813C18.4787 47.0327 17.84 46.787 17.1643 46.4441C16.4885 46.1012 15.9284 45.7262 15.4839 45.3192L12.2804 46.6547C11.8242 46.8693 11.3656 46.8971 10.9046 46.7378C10.4436 46.5786 10.0849 46.2975 9.8285 45.8946L6.81257 41.1359C6.53907 40.7086 6.46 40.2589 6.57538 39.7867C6.69075 39.3146 6.96586 38.9366 7.40069 38.6528L10.3623 36.7084C10.186 35.9951 10.0978 35.3602 10.0978 34.8036C10.0978 34.247 10.186 33.6121 10.3623 32.8988L7.40069 30.9544C6.96586 30.6705 6.69075 30.2951 6.57538 29.8281C6.46 29.3611 6.53907 28.9139 6.81257 28.4865L9.8285 23.7126C10.0849 23.3198 10.4436 23.0438 10.9046 22.8846C11.3656 22.7254 11.8242 22.7531 12.2804 22.9678L15.4839 24.288C15.9284 23.8912 16.4885 23.5213 17.1643 23.1784C17.84 22.8355 18.4787 22.5897 19.0802 22.4412L19.5144 18.9126C19.5871 18.4537 19.8045 18.0663 20.1667 17.7503C20.5289 17.4344 20.9562 17.2765 21.4488 17.2765H27.3044C27.7862 17.2765 28.2082 17.4344 28.5704 17.7503C28.9325 18.0663 29.15 18.4537 29.2226 18.9126L29.6729 22.4412C30.2638 22.5897 30.8971 22.8355 31.5728 23.1784C32.2486 23.5213 32.8087 23.8912 33.2531 24.288L36.4727 22.9678C36.9182 22.7531 37.3714 22.7254 37.8324 22.8846C38.2934 23.0438 38.6521 23.3198 38.9086 23.7126L41.9245 28.4865C42.2087 28.9139 42.2904 29.3611 42.1697 29.8281C42.049 30.2951 41.7766 30.6705 41.3524 30.9544L38.3749 32.8988C38.5512 33.6121 38.6393 34.247 38.6393 34.8036C38.6393 35.3602 38.5512 35.9951 38.3749 36.7084L41.3524 38.6528C41.7766 38.9366 42.049 39.3146 42.1697 39.7867C42.2904 40.2589 42.2087 40.7086 41.9245 41.1359L38.9086 45.8946C38.6521 46.2975 38.2934 46.5786 37.8324 46.7378C37.3714 46.8971 36.9182 46.8693 36.4727 46.6547L33.2531 45.3192C32.8087 45.7262 32.2486 46.1012 31.5728 46.4441C30.8971 46.787 30.2638 47.0327 29.6729 47.1813L29.2226 50.6946C29.15 51.1637 28.9325 51.5562 28.5704 51.8721C28.2082 52.188 27.7862 52.346 27.3044 52.346H21.4488ZM24.3686 41.1679C26.2596 41.1679 27.8461 40.5574 29.1281 39.3364C30.4102 38.1155 31.0512 36.6045 31.0512 34.8036C31.0512 33.0128 30.4102 31.507 29.1281 30.286C27.8461 29.065 26.2596 28.4545 24.3686 28.4545C22.4775 28.4545 20.8937 29.065 19.617 30.286C18.3403 31.507 17.7019 33.0128 17.7019 34.8036C17.7019 36.6045 18.3403 38.1155 19.617 39.3364C20.8937 40.5574 22.4775 41.1679 24.3686 41.1679ZM24.3686 38.1766C23.3643 38.1766 22.5256 37.8535 21.8525 37.2074C21.1794 36.5613 20.8429 35.76 20.8429 34.8036C20.8429 33.8573 21.1794 33.0611 21.8525 32.415C22.5256 31.7689 23.3643 31.4458 24.3686 31.4458C25.3729 31.4458 26.2142 31.7689 26.8926 32.415C27.571 33.0611 27.9103 33.8573 27.9103 34.8036C27.9103 35.76 27.571 36.5613 26.8926 37.2074C26.2142 37.8535 25.3729 38.1766 24.3686 38.1766ZM22.3749 49.3547H26.3621L26.8621 44.9561C28.0705 44.6549 29.1396 44.2522 30.0697 43.748C30.9997 43.2439 31.876 42.5751 32.6987 41.7418L36.7981 43.4879L38.7564 40.4171L34.9487 37.8438C35.36 36.8986 35.5657 35.8877 35.5657 34.8112C35.5657 33.7347 35.36 32.7239 34.9487 31.7786L38.7083 29.1596L36.7981 26.1194L32.6987 27.8806C31.876 27.0473 30.9997 26.376 30.0697 25.8668C29.1396 25.3575 28.0705 24.9574 26.8621 24.6664L26.3621 20.2678H22.3749L21.8749 24.6664C20.6666 24.9574 19.6001 25.3575 18.6754 25.8668C17.7508 26.376 16.8718 27.0473 16.0384 27.8806L11.9391 26.1194L10.0448 29.1596L13.7884 31.7786C13.3771 32.7239 13.1693 33.7347 13.165 34.8112C13.1608 35.8877 13.3686 36.8986 13.7884 37.8438L9.99675 40.4171L11.9391 43.4879L16.0384 41.7418C16.8718 42.5751 17.7508 43.2439 18.6754 43.748C19.6001 44.2522 20.6666 44.6549 21.8749 44.9561L22.3749 49.3547Z" fill="white"/>
</g>
</svg>
