<svg width="60" height="60" viewBox="0 0 60 60" fill="none" xmlns="http://www.w3.org/2000/svg">
<mask id="mask0_1_173" style="mask-type:alpha" maskUnits="userSpaceOnUse" x="0" y="0" width="60" height="60">
<rect width="60" height="60" fill="#D9D9D9"/>
</mask>
<g mask="url(#mask0_1_173)">
<path d="M30 47.5711C35.3675 43.0108 39.4151 38.675 42.1426 34.5638C44.8702 30.4526 46.234 26.9074 46.234 23.9282C46.234 19.2584 44.6696 15.4348 41.5407 12.4574C38.4119 9.48001 34.565 7.99132 30 7.99132C25.435 7.99132 21.5881 9.48001 18.4592 12.4574C15.3304 15.4348 13.766 19.2584 13.766 23.9282C13.766 26.9074 15.1453 30.4526 17.9038 34.5638C20.6624 38.675 24.6945 43.0108 30 47.5711ZM30 51.5651C23.484 46.1745 18.6258 41.1708 15.4255 36.5539C12.2252 31.9371 10.6251 27.7285 10.6251 23.9282C10.6251 18.1591 12.5754 13.5621 16.476 10.1372C20.3766 6.71242 24.8846 5 30 5C35.1154 5 39.6234 6.71242 43.524 10.1372C47.4246 13.5621 49.3749 18.1591 49.3749 23.9282C49.3749 27.7285 47.7748 31.9371 44.5745 36.5539C41.3742 41.1708 36.516 46.1745 30 51.5651ZM23.3814 30.1827H27.3878V23.8031H32.6122V30.1827H36.6186V19.8349L30 15.6562L23.3814 19.8349V30.1827Z" fill="white"/>
</g>
</svg>
