<svg width="48" height="38" viewBox="0 0 48 38" fill="none" xmlns="http://www.w3.org/2000/svg">
<path d="M22.9743 37.7159C22.652 37.7159 22.3321 37.6782 22.0146 37.6029C21.6972 37.5276 21.3851 37.4065 21.0785 37.2397L8.43433 30.6845C7.82108 30.3528 7.33204 29.8992 6.9672 29.3235C6.60233 28.7478 6.41989 28.1021 6.41989 27.3864V16.7181L1.24533 14.0259C0.911662 13.849 0.664517 13.6198 0.503892 13.3384C0.343267 13.057 0.254933 12.7486 0.238892 12.4131C0.238892 12.0723 0.323225 11.763 0.491892 11.4849C0.660517 11.2069 0.911662 10.9795 1.24533 10.8025L21.0776 0.474457C21.3789 0.321364 21.6879 0.204005 22.0048 0.122379C22.3216 0.040793 22.6448 0 22.9743 0C23.3038 0 23.6269 0.0417051 23.9435 0.125117C24.2602 0.208568 24.5637 0.328626 24.8541 0.48529L46.8716 11.8693C47.2006 12.0576 47.4549 12.297 47.6344 12.5877C47.8139 12.8783 47.9036 13.1919 47.9036 13.5284V27.9542C47.9036 28.3779 47.7523 28.7332 47.4497 29.0199C47.1471 29.3065 46.7721 29.4499 46.3247 29.4499C45.8774 29.4499 45.5052 29.3065 45.2082 29.0199C44.9112 28.7332 44.7627 28.3779 44.7627 27.9542V14.1266L39.5287 16.7181V27.3864C39.5287 28.1021 39.3463 28.7478 38.9815 29.3235C38.6166 29.8992 38.1222 30.3528 37.4983 30.6845L24.8541 37.2397C24.5581 37.4065 24.2514 37.5276 23.934 37.6029C23.6166 37.6782 23.2967 37.7159 22.9743 37.7159ZM22.6858 21.7791C22.7873 21.8402 22.8848 21.8707 22.9783 21.8707C23.0718 21.8707 23.1747 21.8402 23.2868 21.7791L41.3189 12.4142L23.2868 3.16073C23.1747 3.09966 23.0718 3.06912 22.9783 3.06912C22.8848 3.06912 22.7873 3.09966 22.6858 3.16073L4.68102 12.4142L22.6858 21.7791ZM22.6618 34.6803C22.7633 34.7413 22.8648 34.7719 22.9663 34.7719C23.0678 34.7719 23.1747 34.7413 23.2868 34.6803L36.0272 28.0396C36.1554 27.9735 36.2476 27.8883 36.3036 27.784C36.3597 27.6797 36.3878 27.5512 36.3878 27.3986V18.4458L24.8669 24.3905C24.5688 24.5471 24.2638 24.6593 23.9519 24.727C23.6399 24.7946 23.3141 24.8284 22.9743 24.8284C22.6346 24.8284 22.313 24.7946 22.0096 24.727C21.7062 24.6593 21.4054 24.5471 21.1073 24.3905L9.56083 18.3817V27.3986C9.56083 27.5309 9.58889 27.6543 9.64502 27.7688C9.7011 27.8832 9.79325 27.9735 9.92145 28.0396L22.6618 34.6803Z" fill="white"/>
</svg>
