<svg width="48" height="42" viewBox="0 0 48 42" fill="none" xmlns="http://www.w3.org/2000/svg">
<path d="M17.2853 41.6658C16.8395 41.6658 16.4663 41.522 16.1658 41.2343C15.8651 40.9466 15.7148 40.5895 15.7148 40.1629C15.7148 39.7363 15.8651 39.3816 16.1658 39.0988C16.4663 38.8159 16.8395 38.6745 17.2853 38.6745H20.8847V33.3327H4.18594C3.1149 33.3327 2.19544 32.9671 1.42757 32.2357C0.659694 31.5044 0.275757 30.6288 0.275757 29.6087V3.72399C0.275757 2.70397 0.659694 1.82831 1.42757 1.09701C2.19544 0.365669 3.1149 0 4.18594 0H43.8653C44.9447 0 45.8662 0.365669 46.6299 1.09701C47.3937 1.82831 47.7756 2.70397 47.7756 3.72399V29.6087C47.7756 30.6288 47.3937 31.5044 46.6299 32.2357C45.8662 32.9671 44.9447 33.3327 43.8653 33.3327H27.1666V38.6745H30.782C31.2278 38.6745 31.6009 38.8183 31.9016 39.106C32.2022 39.3937 32.3525 39.7508 32.3525 40.1774C32.3525 40.604 32.2022 40.9587 31.9016 41.2415C31.6009 41.5244 31.2278 41.6658 30.782 41.6658H17.2853ZM4.18594 30.3414H43.8653C44.0897 30.3414 44.274 30.2727 44.4183 30.1353C44.5625 29.9979 44.6346 29.8224 44.6346 29.6087V3.72399C44.6346 3.5103 44.5625 3.33477 44.4183 3.19739C44.274 3.06001 44.0897 2.99133 43.8653 2.99133H4.18594C3.97228 2.99133 3.79065 3.06001 3.64107 3.19739C3.49149 3.33477 3.41669 3.5103 3.41669 3.72399V29.6087C3.41669 29.8224 3.49149 29.9979 3.64107 30.1353C3.79065 30.2727 3.97228 30.3414 4.18594 30.3414Z" fill="white"/>
</svg>
