<svg width="60" height="60" viewBox="0 0 60 60" fill="none" xmlns="http://www.w3.org/2000/svg">
<mask id="mask0_1_182" style="mask-type:alpha" maskUnits="userSpaceOnUse" x="0" y="0" width="60" height="60">
<rect width="60" height="60" fill="#D9D9D9"/>
</mask>
<g mask="url(#mask0_1_182)">
<path d="M28.6298 20.1136L23.9524 15.6345C23.5664 15.2669 23.3734 14.8364 23.3734 14.3429C23.3734 13.8495 23.5684 13.417 23.9584 13.0456L28.6358 8.5666C29.0218 8.18887 29.4765 8 30 8C30.5235 8 30.9802 8.19077 31.3702 8.57231L36.0732 13.0514C36.4592 13.4189 36.6522 13.8495 36.6522 14.3429C36.6522 14.8364 36.4572 15.2689 36.0672 15.6402L31.3642 20.1193C30.9782 20.497 30.5235 20.6859 30 20.6859C29.4765 20.6859 29.0198 20.4951 28.6298 20.1136ZM5.72917 48.2251C5.16805 48.2251 4.70192 48.0484 4.3308 47.6949C3.95967 47.3415 3.77411 46.8976 3.77411 46.3632V39.2967C3.77411 38.2375 4.15525 37.3343 4.91755 36.587C5.6798 35.8396 6.59938 35.4507 7.6763 35.4202H15.6875C16.3787 35.4202 17.0393 35.5835 17.669 35.9101C18.2988 36.2367 18.8269 36.6879 19.2532 37.2638C20.4935 38.9468 22.0579 40.2507 23.9463 41.1756C25.8346 42.1005 27.8525 42.5629 30 42.5629C32.1579 42.5629 34.1846 42.1005 36.08 41.1756C37.9754 40.2507 39.5529 38.9468 40.8125 37.2638C41.2452 36.6879 41.7657 36.2367 42.3739 35.9101C42.9821 35.5835 43.6283 35.4202 44.3125 35.4202H52.3237C53.4198 35.4507 54.3482 35.8396 55.1089 36.587C55.8696 37.3343 56.2499 38.2375 56.2499 39.2967V46.3632C56.2499 46.8976 56.0644 47.3415 55.6932 47.6949C55.3221 48.0484 54.856 48.2251 54.2948 48.2251H42.564C42.0029 48.2251 41.5368 48.0484 41.1657 47.6949C40.7945 47.3415 40.609 46.8976 40.609 46.3632V41.8196C39.1549 43.008 37.5217 43.9275 35.7094 44.5782C33.897 45.2289 31.992 45.5543 29.9944 45.5543C28.0323 45.5543 26.1493 45.2303 24.3454 44.5823C22.5414 43.9342 20.898 43.0169 19.415 41.8302V46.3632C19.415 46.8976 19.2295 47.3415 18.8584 47.6949C18.4872 48.0484 18.0211 48.2251 17.4599 48.2251H5.72917ZM10.724 31.2535C8.9273 31.2535 7.38255 30.6379 6.0898 29.4068C4.79709 28.1756 4.15073 26.7045 4.15073 24.9933C4.15073 23.246 4.79709 21.7668 6.0898 20.5555C7.38255 19.3442 8.9273 18.7385 10.724 18.7385C12.5587 18.7385 14.1119 19.3442 15.3838 20.5555C16.6557 21.7668 17.2917 23.246 17.2917 24.9933C17.2917 26.7045 16.6557 28.1756 15.3838 29.4068C14.1119 30.6379 12.5587 31.2535 10.724 31.2535ZM49.2816 31.2535C47.4849 31.2535 45.9401 30.6379 44.6474 29.4068C43.3547 28.1756 42.7083 26.7045 42.7083 24.9933C42.7083 23.246 43.3547 21.7668 44.6474 20.5555C45.9401 19.3442 47.4849 18.7385 49.2816 18.7385C51.1162 18.7385 52.6695 19.3442 53.9414 20.5555C55.2133 21.7668 55.8492 23.246 55.8492 24.9933C55.8492 26.7045 55.2133 28.1756 53.9414 29.4068C52.6695 30.6379 51.1162 31.2535 49.2816 31.2535Z" fill="white"/>
</g>
</svg>
