<svg width="230" height="40" viewBox="0 0 230 40" fill="none" xmlns="http://www.w3.org/2000/svg">
<g clip-path="url(#clip0_1_41)">
<path d="M39.892 0.266113V40.0001L11.6862 28.3603L39.892 0.266113Z" fill="#05A17B"/>
<path d="M39.892 0.266113V40.0001L68.1033 28.3603L39.892 0.266113Z" fill="#39B773"/>
<path d="M39.892 0.266113L68.1033 28.3603L79.7894 0.266113H39.892Z" fill="#8FC84E"/>
<path d="M39.892 0.266113L11.6861 28.3603L0 0.266113H39.892Z" fill="#256D76"/>
<path d="M145.532 7.62871C145.281 9.10763 145.025 10.5812 144.779 12.0602C144.245 15.2521 143.716 18.444 143.187 21.6359C142.717 24.4873 142.247 27.3388 141.772 30.1849C141.43 32.233 141.099 34.2812 140.714 36.3187C140.522 37.3401 140.047 37.7125 138.984 37.8402C138.711 37.8721 138.439 37.9306 138.167 37.92C136.516 37.8668 135.955 37.3773 135.672 35.6644C134.898 30.9882 134.15 26.3014 133.381 21.6253C132.639 17.0927 131.88 12.5602 131.127 8.03302C131.106 7.91598 131.031 7.8149 130.871 7.71383C130.871 7.95854 130.871 8.20857 130.871 8.45329C130.871 17.3321 130.871 26.211 130.871 35.0898C130.871 35.4143 130.871 35.7388 130.849 36.058C130.769 37.4039 130.16 37.9572 128.788 37.9253C127.383 37.8934 126.796 37.3029 126.796 35.9037C126.796 24.7374 126.796 13.571 126.796 2.40461C126.796 0.771415 127.474 0.101113 129.108 0.0957932C129.856 0.0957932 130.609 0.0957932 131.357 0.0957932C133.066 0.0957932 133.707 0.680977 133.974 2.37801C134.652 6.67114 135.363 10.9589 136.046 15.2521C136.666 19.1302 137.264 23.0137 137.884 26.8919C138.017 27.7378 138.183 28.5783 138.476 29.4082C138.984 26.1897 139.486 22.9712 140.004 19.7527C140.581 16.1937 141.179 12.6347 141.756 9.07571C142.124 6.80945 142.498 4.54319 142.84 2.27161C143.08 0.670338 143.7 0.101113 145.292 0.0957932C146.119 0.0957932 146.942 0.0851535 147.77 0.0957932C149.121 0.117073 149.847 0.835253 149.879 2.1599C149.879 2.28225 149.879 2.40993 149.879 2.53229C149.879 13.5976 149.879 24.6682 149.879 35.7335C149.879 37.5955 148.24 38.5584 146.563 37.6646C145.895 37.3082 145.692 36.707 145.697 35.9782C145.708 30.9776 145.697 25.9822 145.697 20.9815C145.697 16.8055 145.697 12.6241 145.697 8.44797C145.697 8.17665 145.697 7.90534 145.697 7.63403C145.644 7.63403 145.585 7.62339 145.532 7.62339V7.62871Z" fill="#103540"/>
<path d="M208.064 26.5833C208.064 26.312 208.064 26.0407 208.064 25.7694C208.064 17.9385 208.064 10.1024 208.064 2.27156C208.064 1.04799 208.38 0.404287 209.256 0.212773C211.045 -0.180897 212.236 0.239372 212.236 2.24496C212.236 13.2837 212.241 24.3224 212.225 35.3664C212.225 36.2867 212.182 37.4039 211.098 37.638C209.987 37.8774 208.786 37.8295 207.643 37.7018C206.9 37.6167 206.574 36.8666 206.409 36.1644C205.65 32.9246 204.903 29.6795 204.16 26.4397C202.846 20.7208 201.543 15.002 200.229 9.28845C200.213 9.22993 200.138 9.18205 199.978 9.0065C199.978 9.38953 199.978 9.63956 199.978 9.89491C199.978 18.3003 199.978 26.7057 199.978 35.1057C199.978 35.4302 199.978 35.7547 199.957 36.0739C199.877 37.4145 199.257 37.9678 197.885 37.9306C196.507 37.8933 195.903 37.3028 195.903 35.9782C195.903 24.7639 195.903 13.5497 195.903 2.3354C195.903 0.803276 196.603 0.111695 198.141 0.106375C198.718 0.106375 199.289 0.106375 199.866 0.106375C201.297 0.106375 201.89 0.516004 202.243 1.95769C202.905 4.66017 203.509 7.38394 204.134 10.0971C205.399 15.5925 206.66 21.0879 207.926 26.5886C207.968 26.5886 208.016 26.5886 208.059 26.5886L208.064 26.5833Z" fill="#103540"/>
<path d="M158.778 33.8237C160.759 33.8237 162.682 33.8237 164.605 33.8237C165.299 33.8237 166.031 33.8663 166.319 34.6004C166.677 35.4995 166.762 36.4996 166.116 37.287C165.844 37.6221 165.192 37.7977 164.711 37.803C162.062 37.8509 159.413 37.8509 156.764 37.8136C155.076 37.7923 154.403 37.0529 154.403 35.3505C154.403 24.4395 154.403 13.5232 154.403 2.61214C154.403 0.952343 155.172 0.191603 156.647 0.218203C159.397 0.260762 162.142 0.218203 164.893 0.255442C165.935 0.266081 166.367 0.760828 166.383 1.78756C166.383 2.08547 166.394 2.38338 166.383 2.6813C166.351 3.57503 165.919 4.0751 165.016 4.1017C163.243 4.1549 161.469 4.1549 159.696 4.17086C159.403 4.17086 159.109 4.17086 158.772 4.17086C158.756 4.48473 158.735 4.70284 158.735 4.92096C158.735 8.5757 158.746 12.2304 158.719 15.8852C158.719 16.5182 158.911 16.6832 159.525 16.6725C161.149 16.6353 162.773 16.6566 164.402 16.6672C165.513 16.6778 166.041 17.1779 166.089 18.2844C166.111 18.726 166.132 19.1941 166.015 19.6091C165.833 20.2581 165.31 20.5241 164.642 20.5241C162.89 20.5241 161.144 20.5401 159.392 20.5241C158.932 20.5241 158.724 20.6199 158.724 21.1412C158.74 25.2428 158.735 29.3444 158.735 33.446C158.735 33.5418 158.756 33.6375 158.783 33.8344L158.778 33.8237Z" fill="#103540"/>
<path d="M222.33 33.8238C224.29 33.8238 226.187 33.8238 228.083 33.8238C229.498 33.8238 229.941 34.2547 229.995 35.6698C230.059 37.3083 229.567 37.8244 227.912 37.8244C225.46 37.8297 223.014 37.835 220.562 37.819C220.146 37.819 219.719 37.7552 219.307 37.6648C218.501 37.4839 218.031 36.92 217.967 36.0901C217.929 35.5687 217.908 35.0474 217.908 34.526C217.908 24.163 217.908 13.7946 217.908 3.43149C217.908 2.91014 217.929 2.38879 217.967 1.86745C218.041 0.941794 218.672 0.266172 219.606 0.255532C222.581 0.223613 225.551 0.234253 228.526 0.250213C229.231 0.250213 229.733 0.601323 229.797 1.34078C229.845 1.87277 229.85 2.41539 229.808 2.9527C229.749 3.71876 229.268 4.09115 228.515 4.10179C226.769 4.12839 225.017 4.14435 223.27 4.16563C222.977 4.16563 222.677 4.16563 222.325 4.16563V16.6566C223.286 16.6566 224.226 16.6566 225.166 16.6566C225.968 16.6566 226.763 16.6566 227.565 16.6566C229.332 16.662 230.304 18.3164 229.364 19.8486C229.145 20.205 228.515 20.471 228.067 20.4923C226.448 20.5721 224.819 20.5242 223.196 20.5295C222.923 20.5295 222.656 20.5295 222.325 20.5295V33.8291L222.33 33.8238Z" fill="#103540"/>
<path d="M106.655 33.8238C108.492 33.8238 110.217 33.8238 111.937 33.8238C112.631 33.8238 113.352 33.861 113.651 34.5952C114.02 35.4942 114.105 36.4891 113.454 37.2764C113.176 37.6115 112.535 37.7924 112.054 37.8031C109.582 37.8563 107.103 37.8616 104.63 37.8137C103.29 37.7871 102.296 37.3349 102.328 35.6219C102.334 35.2761 102.296 34.925 102.296 34.5792C102.296 24.0353 102.296 13.4913 102.296 2.94737C102.296 2.77181 102.307 2.59626 102.296 2.42602C102.168 -0.0264322 103.733 -0.143469 105.581 0.26084C106.142 0.383197 106.462 0.798146 106.527 1.37269C106.58 1.86744 106.644 2.36218 106.644 2.85693C106.649 12.8317 106.644 22.8011 106.644 32.7758V33.8345L106.655 33.8238Z" fill="#103540"/>
<path d="M175.324 33.8237C177.177 33.8237 178.897 33.8237 180.622 33.8237C181.317 33.8237 182.043 33.8769 182.331 34.6058C182.689 35.5048 182.78 36.5049 182.118 37.287C181.835 37.6221 181.194 37.7923 180.713 37.803C178.24 37.8509 175.762 37.8615 173.289 37.8083C171.97 37.7817 170.971 37.3455 171.003 35.6059C171.009 35.2601 170.971 34.909 170.971 34.5632C170.971 24.0192 170.971 13.4753 170.971 2.93133C170.971 2.51106 170.992 2.08547 171.025 1.6652C171.099 0.654429 171.628 0.149043 172.648 0.101164C172.899 0.0905246 173.15 0.101164 173.396 0.101164C174.582 0.117124 175.073 0.526753 175.249 1.67584C175.308 2.06419 175.324 2.4685 175.324 2.86217C175.324 12.8369 175.324 22.8063 175.324 32.781V33.8237Z" fill="#103540"/>
<path d="M121.396 19.1888C121.396 24.2852 121.396 29.387 121.396 34.4834C121.396 34.9781 121.385 35.4782 121.358 35.973C121.278 37.4625 120.702 37.9785 119.174 37.9307C117.716 37.8881 117.219 37.4359 117.059 35.9942C117.032 35.7495 117.038 35.4995 117.038 35.2495C117.038 24.4342 117.038 13.6136 117.038 2.79834C117.038 2.69726 117.038 2.6015 117.038 2.50043C117.059 0.372483 118.223 -0.430815 120.285 0.228847C120.942 0.436322 121.268 0.86191 121.326 1.51625C121.369 1.9844 121.396 2.45787 121.396 2.93133C121.396 8.35227 121.396 13.7732 121.396 19.1941V19.1888Z" fill="#103540"/>
<path d="M190.108 19.2633C190.108 24.3384 190.108 29.4083 190.108 34.4834C190.108 34.9781 190.097 35.4782 190.071 35.973C189.99 37.4625 189.414 37.9785 187.886 37.9307C186.428 37.8881 185.931 37.4359 185.776 35.9942C185.75 35.7495 185.755 35.4995 185.755 35.2495C185.755 24.4342 185.755 13.6136 185.755 2.79834C185.755 2.69726 185.755 2.6015 185.755 2.50043C185.776 0.372483 186.941 -0.430815 189.002 0.228847C189.659 0.436322 189.985 0.86191 190.044 1.51625C190.087 1.9844 190.113 2.45787 190.113 2.93133C190.113 8.37887 190.113 13.8264 190.113 19.2686L190.108 19.2633Z" fill="#103540"/>
</g>
<defs>
<clipPath id="clip0_1_41">
<rect width="230" height="40" fill="white"/>
</clipPath>
</defs>
</svg>
