<svg width="34" height="34" viewBox="0 0 34 34" fill="none" xmlns="http://www.w3.org/2000/svg">
<g clip-path="url(#clip0_1_125)">
<path d="M20.0979 14.5842C18.6428 14.5842 17.9929 15.384 17.6293 15.9455V14.7787H14.8889C14.9245 15.5511 14.8889 23.024 14.8889 23.024H17.6293V18.4175C17.6293 18.1717 17.6451 17.9245 17.719 17.7485C17.9176 17.2555 18.3682 16.7454 19.1255 16.7454C20.1171 16.7454 20.5135 17.5013 20.5135 18.6107V23.0219H23.254L23.2547 18.2936C23.2533 15.7627 21.9009 14.5842 20.0979 14.5842ZM17.6272 15.9743H17.6101C17.6156 15.9647 17.6238 15.9558 17.6272 15.9462V15.9743Z" fill="#236D75"/>
<path d="M13.3701 14.7786H10.6296V23.0238H13.3701V14.7786Z" fill="#236D75"/>
<path d="M17 0C7.62624 0 0 7.62624 0 17C0 26.3731 7.62624 34 17 34C26.3731 34 34 26.3731 34 17C34 7.62624 26.3744 0 17 0ZM26.0149 24.6892C26.0149 25.4123 25.4151 25.9971 24.6735 25.9971H9.21079C8.47124 25.9971 7.8707 25.4123 7.8707 24.6892V9.04644C7.8707 8.32401 8.47124 7.73854 9.21079 7.73854H24.6735C25.4144 7.73854 26.0149 8.3247 26.0149 9.04644V24.6892Z" fill="#236D75"/>
<path d="M12.0183 10.8035C11.0816 10.8035 10.468 11.4184 10.468 12.2278C10.468 13.0187 11.0631 13.6521 11.982 13.6521H11.9998C12.9558 13.6521 13.5508 13.0187 13.5508 12.2278C13.5323 11.4191 12.9565 10.8035 12.0183 10.8035Z" fill="#236D75"/>
</g>
<defs>
<clipPath id="clip0_1_125">
<rect width="34" height="34" fill="white"/>
</clipPath>
</defs>
</svg>
