<svg width="30" height="30" viewBox="0 0 30 30" fill="none" xmlns="http://www.w3.org/2000/svg">
<path d="M30 15.0038V15.445C30 15.6888 29.8022 15.8862 29.5583 15.8862H28.6747C28.4309 15.8862 28.2331 15.6888 28.2331 15.445V15.0038C28.2331 7.69215 22.3001 1.76517 14.9812 1.76517H14.5395C14.2954 1.76517 14.0978 1.56758 14.0978 1.32393V0.441236C14.0978 0.197593 14.2954 0 14.5395 0H14.9812C23.2758 0 29.9999 6.71735 29.9999 15.0037L30 15.0038ZM24.6993 15.0038V15.445C24.6993 15.6888 24.5015 15.8862 24.2576 15.8862H23.374C23.1301 15.8862 22.9323 15.6888 22.9323 15.445V15.0038C22.9323 10.617 19.3725 7.06092 14.9815 7.06092H14.5398C14.2957 7.06092 14.0982 6.86333 14.0982 6.61969V5.73699C14.0982 5.49335 14.2957 5.29575 14.5398 5.29575H14.9815C20.3486 5.29575 24.6997 9.64215 24.6997 15.0042L24.6993 15.0038ZM22.1567 29.0841C19.5074 31.7307 11.0144 28.2517 6.38223 23.6244C1.74987 18.9967 -1.7327 10.5128 0.917029 7.86576L3.2482 5.53693C3.93815 4.84767 5.05704 4.84767 5.74699 5.53693C5.78848 5.57837 5.82787 5.62191 5.86516 5.66733L10.3628 11.1592C10.9378 11.8611 10.8866 12.8838 10.2447 13.5251L7.76851 15.9985C7.62645 16.1406 7.59816 16.3606 7.69979 16.5337C8.46644 17.8405 9.29531 18.9373 10.1847 19.8257C11.074 20.714 12.1719 21.5422 13.4799 22.3081C13.6532 22.4096 13.8734 22.3814 14.0155 22.2392L16.4917 19.7656C17.1336 19.1244 18.1574 19.0734 18.8599 19.6477L24.3573 24.1409C25.1124 24.7582 25.2238 25.8702 24.606 26.6248C24.5687 26.6702 24.5293 26.7138 24.4878 26.7552L22.1567 29.0841Z" fill="#39B773"/>
</svg>
